<?xml version="1.0" encoding="UTF-8"?>
<svg width="151px" height="159px" viewBox="0 0 151 159" version="1.1" xmlns="http://www.w3.org/2000/svg" xmlns:xlink="http://www.w3.org/1999/xlink">
    <title>Artboard 2</title>
    <defs>
        <linearGradient x1="25.0854799%" y1="53.4800409%" x2="99.3716811%" y2="46.2128966%" id="linearGradient-1">
            <stop stop-color="#EAEAEA" offset="19%"></stop>
            <stop stop-color="#D4D4D4" offset="59%"></stop>
            <stop stop-color="#BFBFBF" offset="100%"></stop>
        </linearGradient>
        <linearGradient x1="47.7010228%" y1="44.2045228%" x2="61.7027737%" y2="58.725053%" id="linearGradient-2">
            <stop stop-color="#969696" offset="0%"></stop>
            <stop stop-color="#FFFFFF" offset="15%"></stop>
            <stop stop-color="#FFFFFF" offset="34%"></stop>
            <stop stop-color="#969696" offset="99%"></stop>
        </linearGradient>
        <linearGradient x1="31.9445641%" y1="44.1772587%" x2="62.9521844%" y2="51.1508073%" id="linearGradient-3">
            <stop stop-color="#FFFFFF" offset="42%"></stop>
            <stop stop-color="#D4D4D4" offset="80%"></stop>
            <stop stop-color="#BFBFBF" offset="100%"></stop>
        </linearGradient>
        <linearGradient x1="34.3955316%" y1="44.1394787%" x2="57.2277807%" y2="51.1479372%" id="linearGradient-4">
            <stop stop-color="#FFFFFF" offset="42%"></stop>
            <stop stop-color="#D4D4D4" offset="80%"></stop>
            <stop stop-color="#BFBFBF" offset="100%"></stop>
        </linearGradient>
        <linearGradient x1="74.9145201%" y1="53.4800409%" x2="0.6283189%" y2="46.2128966%" id="linearGradient-5">
            <stop stop-color="#EAEAEA" offset="19%"></stop>
            <stop stop-color="#D4D4D4" offset="59%"></stop>
            <stop stop-color="#BFBFBF" offset="100%"></stop>
        </linearGradient>
        <linearGradient x1="52.2881567%" y1="44.2045228%" x2="38.2864058%" y2="58.725053%" id="linearGradient-6">
            <stop stop-color="#969696" offset="0%"></stop>
            <stop stop-color="#FFFFFF" offset="15%"></stop>
            <stop stop-color="#FFFFFF" offset="34%"></stop>
            <stop stop-color="#969696" offset="99%"></stop>
        </linearGradient>
        <linearGradient x1="68.0636936%" y1="44.1772587%" x2="37.0560733%" y2="51.1508073%" id="linearGradient-7">
            <stop stop-color="#FFFFFF" offset="42%"></stop>
            <stop stop-color="#D4D4D4" offset="80%"></stop>
            <stop stop-color="#BFBFBF" offset="100%"></stop>
        </linearGradient>
        <linearGradient x1="65.5983896%" y1="44.1394787%" x2="42.7661405%" y2="51.1479372%" id="linearGradient-8">
            <stop stop-color="#FFFFFF" offset="42%"></stop>
            <stop stop-color="#D4D4D4" offset="80%"></stop>
            <stop stop-color="#BFBFBF" offset="100%"></stop>
        </linearGradient>
        <linearGradient x1="49.1122724%" y1="-23.2658776%" x2="50.8045032%" y2="121.108566%" id="linearGradient-9">
            <stop stop-color="#BFBFBF" offset="0%"></stop>
            <stop stop-color="#D4D4D4" offset="10%"></stop>
            <stop stop-color="#EAEAEA" offset="27%"></stop>
            <stop stop-color="#EAEAEA" offset="78%"></stop>
            <stop stop-color="#D4D4D4" offset="100%"></stop>
        </linearGradient>
        <linearGradient x1="-944.028777%" y1="50.1926935%" x2="686.043165%" y2="50.1926935%" id="linearGradient-10">
            <stop stop-color="#BFBFBF" offset="0%"></stop>
            <stop stop-color="#D4D4D4" offset="10%"></stop>
            <stop stop-color="#FFFFFF" offset="27%"></stop>
            <stop stop-color="#FFFFFF" offset="72%"></stop>
            <stop stop-color="#D4D4D4" offset="91%"></stop>
            <stop stop-color="#BFBFBF" offset="100%"></stop>
        </linearGradient>
        <linearGradient x1="-192.642601%" y1="50.0032432%" x2="119.509507%" y2="50.0032432%" id="linearGradient-11">
            <stop stop-color="#BFBFBF" offset="0%"></stop>
            <stop stop-color="#D4D4D4" offset="10%"></stop>
            <stop stop-color="#FFFFFF" offset="27%"></stop>
            <stop stop-color="#FFFFFF" offset="72%"></stop>
            <stop stop-color="#D4D4D4" offset="92%"></stop>
            <stop stop-color="#BFBFBF" offset="100%"></stop>
        </linearGradient>
        <linearGradient x1="-547.808299%" y1="49.992633%" x2="149.386324%" y2="49.992633%" id="linearGradient-12">
            <stop stop-color="#BFBFBF" offset="0%"></stop>
            <stop stop-color="#D4D4D4" offset="10%"></stop>
            <stop stop-color="#FFFFFF" offset="27%"></stop>
            <stop stop-color="#FFFFFF" offset="72%"></stop>
            <stop stop-color="#D4D4D4" offset="92%"></stop>
            <stop stop-color="#BFBFBF" offset="100%"></stop>
        </linearGradient>
        <linearGradient x1="-38.9986468%" y1="50.0032314%" x2="267.577808%" y2="50.0032314%" id="linearGradient-13">
            <stop stop-color="#BFBFBF" offset="0%"></stop>
            <stop stop-color="#D4D4D4" offset="13%"></stop>
            <stop stop-color="#FFFFFF" offset="35%"></stop>
            <stop stop-color="#FFFFFF" offset="72%"></stop>
            <stop stop-color="#D4D4D4" offset="91%"></stop>
            <stop stop-color="#BFBFBF" offset="100%"></stop>
        </linearGradient>
        <linearGradient x1="-94.0949936%" y1="49.9929448%" x2="632.926829%" y2="49.9929448%" id="linearGradient-14">
            <stop stop-color="#BFBFBF" offset="0%"></stop>
            <stop stop-color="#D4D4D4" offset="13%"></stop>
            <stop stop-color="#FFFFFF" offset="35%"></stop>
            <stop stop-color="#FFFFFF" offset="72%"></stop>
            <stop stop-color="#D4D4D4" offset="91%"></stop>
            <stop stop-color="#BFBFBF" offset="100%"></stop>
        </linearGradient>
        <linearGradient x1="-61.5121743%" y1="49.981243%" x2="422.34088%" y2="49.981243%" id="linearGradient-15">
            <stop stop-color="#BFBFBF" offset="0%"></stop>
            <stop stop-color="#D4D4D4" offset="13%"></stop>
            <stop stop-color="#FFFFFF" offset="35%"></stop>
            <stop stop-color="#FFFFFF" offset="72%"></stop>
            <stop stop-color="#D4D4D4" offset="91%"></stop>
            <stop stop-color="#BFBFBF" offset="100%"></stop>
        </linearGradient>
        <linearGradient x1="47.3438269%" y1="59.7758762%" x2="51.4756517%" y2="32.2693076%" id="linearGradient-16">
            <stop stop-color="#EAEAEA" offset="19%"></stop>
            <stop stop-color="#D4D4D4" offset="59%"></stop>
            <stop stop-color="#BFBFBF" offset="100%"></stop>
        </linearGradient>
        <radialGradient cx="49.695122%" cy="-69.270073%" fx="49.695122%" fy="-69.270073%" r="174.087591%" gradientTransform="translate(0.496951,-0.692701),scale(0.417683,1.000000),translate(-0.496951,0.692701)" id="radialGradient-17">
            <stop stop-color="#FFFFFF" offset="51%"></stop>
            <stop stop-color="#D4D4D4" offset="87%"></stop>
            <stop stop-color="#BFBFBF" offset="100%"></stop>
        </radialGradient>
        <linearGradient x1="49.8623843%" y1="25.3561773%" x2="50.2324658%" y2="71.2170101%" id="linearGradient-18">
            <stop stop-color="#969696" offset="4%"></stop>
            <stop stop-color="#FFFFFF" offset="30%"></stop>
            <stop stop-color="#FFFFFF" offset="43%"></stop>
            <stop stop-color="#D4D4D4" offset="73%"></stop>
            <stop stop-color="#969696" offset="99%"></stop>
        </linearGradient>
    </defs>
    <g id="Page-1" stroke="none" stroke-width="1" fill="none" fill-rule="evenodd">
        <g id="Artboard-2" fill-rule="nonzero">
            <g id="Group" transform="translate(0.000000, 14.000000)">
                <path d="M26.14,0.71 C26.14,0.71 24.36,1.26 21.85,4.91 C19.34,8.56 0.3,46.16 0.3,46.16 C0.3,46.16 8.52,57.96 29.23,59.33 L32.05,50.04 C32.05,50.04 31.06,10.91 26.14,0.71 Z" id="Path" fill="url(#linearGradient-1)"></path>
                <path d="M1.07,46 C1.07,46 14.37,19.4 17.01,14.63 C19.65,9.86 23.2,3.46 25.13,3.16 C27.06,2.86 26.25,4.38 26.35,7.83 C26.45,11.28 28.48,26.71 26.55,28.94 C24.62,31.17 22.49,28.94 21.68,26.4 C20.87,23.86 19.95,23.25 20.36,27.01 C20.77,30.76 22.19,34.62 18.84,37.77 C15.49,40.92 11.33,50.56 10.41,52.08 C9.5,53.6 3.61,49.95 1.07,45.99 L1.07,46 Z" id="Path" fill="url(#linearGradient-2)" opacity="0.8" style="mix-blend-mode: screen;"></path>
                <path d="M26.32,1.12 C27.41,6.56 26.5,12.33 26.76,17.83 C26.93,21.4 27.03,24.97 27.47,28.52 C27.77,30.93 28.17,33.52 27.26,35.84 C27.12,36.19 26.75,36.3 26.46,36.05 C21.26,31.6 21.63,24.03 20.05,17.78 C18.76,25.97 21.58,34.11 23.71,41.96 C24.02,43.1 27.07,50.86 24.27,50.57 C22.77,50.42 21.7,48.94 20.84,47.85 C19.48,46.12 18.33,44.2 17.24,42.29 C14.57,37.58 14.14,31.86 11.38,27.25 C10.45,33.8 13.62,40.43 16.87,45.94 C18.25,48.27 20.09,50.46 21.3,52.86 C21.87,53.99 21.99,55.03 20.68,55.59 C18.28,56.62 14.82,55.25 12.62,54.35 C9.68,53.15 6.85,51.58 4.07,50.03 C8.32,53.6 16.36,58.49 29.24,59.34 L32.06,50.05 C32.06,50.05 31.09,11.9 26.33,1.12 L26.32,1.12 Z" id="Path" fill="url(#linearGradient-3)" opacity="0.2" style="mix-blend-mode: multiply;"></path>
                <path d="M26.44,1.4 C28.18,8.53 28.74,15.89 28.89,23.22 C28.98,27.41 28.96,31.61 28.95,35.8 C28.95,37.37 29.23,38.96 29.05,40.53 C28.97,41.21 28.76,42.93 28.02,43.22 C26.65,43.76 25.5,40.78 25.06,39.91 C23.18,36.13 22.3,32.09 21.25,28.03 C20.86,26.51 20.49,24.97 20.17,23.43 C20.65,26.76 21.02,30.08 21.91,33.39 C22.57,35.86 23.17,38.51 24.33,40.8 C25.15,42.43 26.15,44 26.87,45.68 C27.76,47.75 28.55,54.64 23.75,51.22 C19.45,48.16 17.05,44.25 14.91,39.58 C13.46,36.41 12.37,33.13 11.65,29.78 C12.46,35.52 14.33,40.84 17.62,45.81 C18.92,47.78 20.41,49.67 22.22,51.19 C23.37,52.15 27.84,54.67 25.65,56.57 C23.73,58.24 18.03,57.06 15.83,56.63 C19.54,57.96 23.98,58.98 29.23,59.33 L32.05,50.04 C32.05,50.04 31.1,12.55 26.44,1.4 L26.44,1.4 Z" id="Path" fill="url(#linearGradient-4)" opacity="0.2" style="mix-blend-mode: multiply;"></path>
            </g>
            <g id="Group" transform="translate(118.000000, 14.000000)">
                <path d="M6.07,0.71 C6.07,0.71 7.85,1.26 10.36,4.91 C12.87,8.55 31.91,46.16 31.91,46.16 C31.91,46.16 23.69,57.96 2.98,59.33 L0.16,50.04 C0.16,50.04 1.15,10.91 6.07,0.71 Z" id="Path" fill="url(#linearGradient-5)"></path>
                <path d="M31.15,46 C31.15,46 17.85,19.4 15.21,14.63 C12.57,9.86 9.02,3.46 7.09,3.16 C5.16,2.86 5.97,4.38 5.87,7.83 C5.77,11.28 3.74,26.71 5.67,28.94 C7.6,31.17 9.73,28.94 10.54,26.4 C11.35,23.86 12.27,23.25 11.86,27.01 C11.45,30.76 10.03,34.62 13.38,37.77 C16.73,40.92 20.89,50.56 21.81,52.08 C22.72,53.6 28.61,49.95 31.15,45.99 L31.15,46 Z" id="Path" fill="url(#linearGradient-6)" opacity="0.8" style="mix-blend-mode: screen;"></path>
                <path d="M5.89,1.12 C4.8,6.56 5.71,12.33 5.45,17.83 C5.28,21.4 5.18,24.97 4.74,28.52 C4.44,30.93 4.04,33.52 4.95,35.84 C5.09,36.19 5.46,36.3 5.75,36.05 C10.95,31.6 10.58,24.03 12.17,17.78 C13.46,25.97 10.64,34.11 8.51,41.96 C8.2,43.1 5.15,50.86 7.95,50.57 C9.45,50.42 10.52,48.94 11.38,47.85 C12.74,46.12 13.89,44.2 14.97,42.29 C17.64,37.58 18.07,31.86 20.83,27.25 C21.76,33.8 18.59,40.43 15.33,45.94 C13.95,48.27 12.11,50.46 10.9,52.86 C10.33,53.99 10.21,55.03 11.52,55.59 C13.92,56.62 17.38,55.25 19.58,54.35 C22.52,53.15 25.35,51.58 28.13,50.03 C23.88,53.6 15.84,58.49 2.96,59.34 L0.14,50.05 C0.14,50.05 1.1,11.9 5.87,1.12 L5.89,1.12 Z" id="Path" fill="url(#linearGradient-7)" opacity="0.2" style="mix-blend-mode: multiply;"></path>
                <path d="M5.77,1.4 C4.03,8.53 3.47,15.89 3.32,23.22 C3.23,27.41 3.25,31.61 3.26,35.8 C3.26,37.37 2.98,38.96 3.17,40.53 C3.25,41.21 3.46,42.93 4.2,43.22 C5.57,43.76 6.73,40.78 7.16,39.91 C9.03,36.13 9.92,32.09 10.97,28.03 C11.36,26.51 11.73,24.97 12.05,23.43 C11.57,26.76 11.2,30.08 10.31,33.39 C9.65,35.86 9.05,38.51 7.89,40.8 C7.07,42.43 6.07,44 5.35,45.68 C4.46,47.75 3.67,54.64 8.47,51.22 C12.77,48.16 15.17,44.25 17.31,39.58 C18.76,36.41 19.85,33.13 20.57,29.78 C19.76,35.52 17.89,40.84 14.6,45.81 C13.3,47.78 11.81,49.67 10,51.19 C8.85,52.15 4.38,54.67 6.57,56.57 C8.49,58.24 14.19,57.06 16.39,56.63 C12.68,57.96 8.24,58.98 2.99,59.33 L0.17,50.04 C0.17,50.04 1.12,12.55 5.78,1.4 L5.77,1.4 Z" id="Path" fill="url(#linearGradient-8)" opacity="0.2" style="mix-blend-mode: multiply;"></path>
            </g>
            <path d="M123.99,14.58 L91.44,1.18 C91.44,1.18 85.93,5.52 75.12,5.14 C64.31,5.52 58.7,1.18 58.7,1.18 L26.14,14.58 C26.14,14.58 31.82,58.43 31.82,80.76 C31.82,103.09 26.14,152.33 26.14,152.33 C49.39,158.22 75.07,158.32 75.07,158.32 C75.07,158.32 100.75,158.22 124,152.33 C124,152.33 118.32,103.1 118.32,80.76 C118.32,58.42 124,14.58 124,14.58 L123.99,14.58 Z" id="Path" fill="url(#linearGradient-9)"></path>
            <path d="M83.42,158.01 C85.47,157.86 87.88,157.65 90.37,157.34 C90.27,157.25 90.14,157.19 89.97,157.21 C87.79,157.59 85.61,157.84 83.42,158 L83.42,158.01 Z" id="Path" fill="url(#linearGradient-10)" style="mix-blend-mode: multiply;"></path>
            <path d="M123.99,14.58 L96.77,3.37 C95.06,8.53 91.94,13.36 87.73,16.52 C87.8,16.48 87.87,16.44 87.94,16.39 C90.08,14.97 91.72,13.16 93.58,11.41 C96.17,8.96 98.85,7.66 102.46,8.33 C103.84,8.59 105.32,9.05 106.77,9.69 C109.06,10.57 111.25,11.7 113.4,12.92 C115.59,14.17 118.09,15.62 119.28,17.96 C120.91,21.17 120.77,25.24 120.62,28.74 C120.46,32.57 119.91,36.33 119.4,40.12 C119.18,41.77 118.8,45.2 116.31,45.01 C114.29,44.86 113.24,42.75 112.51,41.1 C110.09,35.69 108.5,29.98 106.48,24.43 C108.34,31.33 110.34,38.2 112.18,45.11 C112.89,47.78 113.68,50.47 113.95,53.23 C114.1,54.71 114.33,56.78 113.13,57.92 C112.01,58.97 110.02,57.74 109.18,56.94 C107.02,54.89 105.66,52.11 104.37,49.48 C101.96,44.55 98.98,39.97 96.3,35.21 C101.24,43.97 105.06,54.59 108.65,64.01 C112.95,75.32 114.93,87.24 116.45,99.19 C118.03,111.69 122.59,132.33 116.51,144.25 C113.49,150.15 113.16,149.43 104.94,153.69 C101.22,155.62 95.6,156.7 90.4,157.33 C90.46,157.39 90.51,157.46 90.54,157.54 C99.9,156.79 112.27,155.29 124.02,152.32 C124.02,152.32 118.34,103.09 118.34,80.75 C118.34,58.41 124.02,14.57 124.02,14.57 L123.99,14.58 Z" id="Path" fill="url(#linearGradient-11)" opacity="0.4" style="mix-blend-mode: multiply;"></path>
            <path d="M123.08,22.02 C122.59,24.15 122.14,26.29 121.72,28.43 C121.16,31.31 119.34,52.07 116.9,52.17 C115.44,52.23 113.72,48.42 113.42,47.38 C114.39,50.86 115.25,54.39 115.66,57.98 C115.97,60.72 116.73,64.77 115.47,67.39 C113.76,70.94 111.31,65.05 110.69,63.86 C109.76,62.04 106.89,56.9 105.97,55.03 C107.9,60.46 111.39,67.6 113.43,73 C115.44,78.31 116.81,84.43 118.53,89.89 C118.39,86.55 118.3,83.46 118.3,80.77 C118.3,64.12 121.46,35.5 123.07,22.03 L123.08,22.02 Z" id="Path" fill="url(#linearGradient-12)" opacity="0.4" style="mix-blend-mode: multiply;"></path>
            <path d="M40.47,150.23 C37.35,147.71 35.17,144.21 34.42,140.25 C32.48,129.95 36.64,119.78 39.11,109.93 C40.63,103.86 41.99,97.75 43.88,91.78 C45.67,86.16 50.93,73.4 51.61,67.51 C51.21,70.96 45.32,81.98 43.5,84.98 C42.19,87.13 39.18,92.62 35.89,91.16 C33.67,90.18 35.13,85.11 35.36,83.46 C36.74,73.45 39.93,64.16 43.34,54.65 C47.36,43.45 50.45,38.86 53.11,30.63 C50.07,34.97 47.39,39.62 44.86,44.26 C42.8,48.06 40.79,52.65 36.72,54.7 C36.46,54.83 36.13,54.72 36.05,54.43 C34.78,49.91 36.99,44.91 38.08,40.56 C39.45,35.12 41.07,29.73 42.06,24.21 C41.27,28.63 38.49,32.79 36.83,36.92 C35.64,39.88 33.13,40.04 32.51,37.04 C28.16,15.74 29.19,15.23 36.89,11.88 C41.75,9.77 48.86,4.92 54.05,8.38 C56.49,10 58.36,12.37 60.48,14.38 C57.41,11.34 55.24,7.31 54.06,3.08 L26.14,14.58 C26.14,14.58 31.82,58.43 31.82,80.76 C31.82,103.09 26.14,152.33 26.14,152.33 C39.41,155.69 53.46,157.16 63.09,157.81 C60.25,157.31 57.43,156.68 54.66,155.92 C49.9,154.63 44.41,153.39 40.48,150.23 L40.47,150.23 Z" id="Path" fill="url(#linearGradient-13)" opacity="0.4" style="mix-blend-mode: multiply;"></path>
            <path d="M31.7,87.35 C31.95,84.47 32.29,81.59 32.97,78.73 C34.51,72.31 37.45,66.46 39.9,60.37 C40.62,58.59 41.3,56.8 41.97,55.01 C41.67,55.68 41.36,56.34 41.06,57.01 C40.14,59 39.18,61 37.97,62.83 C37.42,63.67 36.76,64.93 35.85,65.44 C32.4,67.37 33.08,57.37 33.08,56.09 C33.06,51.92 33.73,48 35.32,44.13 C36.4,41.49 37.75,38.98 38.71,36.31 C38.45,36.78 38.19,37.25 37.94,37.72 C37.27,38.96 34.59,46.22 32.21,43.51 C31.22,42.38 31.09,40.33 30.92,38.92 C30.65,36.66 30.54,34.4 30.43,32.13 C30.16,26.74 29.1,21.17 26.39,16.48 C27.47,25.12 31.83,61.2 31.83,80.77 C31.83,82.77 31.78,84.98 31.7,87.35 Z" id="Path" fill="url(#linearGradient-14)" opacity="0.6" style="mix-blend-mode: multiply;"></path>
            <path d="M32.3,151.97 C30.23,149.17 29.66,145.82 29.72,142.41 C29.81,137.42 30.33,132.43 31.31,127.54 C35,109.02 43.74,92.12 49.54,74.25 C48.26,77.15 46.87,80.01 45.45,82.84 C43.32,87.07 41.15,91.29 39.14,95.58 C37.1,99.94 32.94,103.26 32.53,95.95 C32.51,95.59 32.05,85.62 31.92,85.29 C30.5,108.53 26.13,152.34 26.13,152.34 C28.92,153.04 31.75,153.66 34.57,154.22 C33.73,153.6 32.96,152.87 32.3,151.98 L32.3,151.97 Z" id="Path" fill="url(#linearGradient-15)" opacity="0.6" style="mix-blend-mode: multiply;"></path>
            <path d="M91.51,1 C91.51,1 88.84,14.58 75.06,14.88 C61.28,14.58 58.62,1 58.62,1 L54.74,2.55 C58.47,19.75 75.07,18.76 75.07,18.76 C75.07,18.76 91.67,19.75 95.4,2.55 L91.52,1 L91.51,1 Z" id="Path" fill="url(#linearGradient-16)"></path>
            <path d="M91.44,1.18 C91.44,1.18 85.93,5.52 75.12,5.14 C64.31,5.52 58.7,1.18 58.7,1.18 L58.67,1.18 C59.05,2.82 62.25,14.6 75.07,14.88 C87.9,14.6 91.09,2.82 91.47,1.19 L91.44,1.19 L91.44,1.18 Z" id="Path" fill="url(#radialGradient-17)" style="mix-blend-mode: multiply;"></path>
            <path d="M38.22,13.92 C44.7,10.84 52.03,8.24 58.73,13.92 C65.43,19.6 78.22,22.04 89.39,15.34 C100.56,8.64 101.38,10.6 108.07,11.48 C121.88,13.31 118.22,44.77 114.16,37.47 C110.1,30.16 107.05,22.24 110.1,35.64 C114.92,56.83 109.29,50.66 104.62,43.56 C99.95,36.45 107.26,55.34 105.64,59.8 C104.02,64.27 94.68,65.08 81.68,61.63 C68.69,58.18 59.35,67.32 51.23,63.46 C43.11,59.6 44.73,51.68 48.18,42.55 C51.63,33.42 55.49,20.02 47.57,34.23 C39.65,48.44 38.64,41.95 41.48,30.17 C44.32,18.39 43.1,18.8 39.45,26.51 C35.79,34.23 30.11,17.78 38.23,13.92 L38.22,13.92 Z" id="Path" fill="url(#linearGradient-18)" opacity="0.5" style="mix-blend-mode: screen;"></path>
            <path d="M54.74,2.55 C54.9,3.12 55.04,3.69 55.22,4.26 C55.42,4.81 55.57,5.39 55.81,5.93 C56.03,6.48 56.25,7.02 56.52,7.55 C56.76,8.09 57.06,8.59 57.35,9.1 C57.65,9.6 57.97,10.1 58.31,10.57 L58.83,11.28 L59.4,11.95 C59.58,12.18 59.79,12.39 60,12.59 C60.21,12.79 60.4,13.02 60.62,13.2 L61.27,13.79 L61.95,14.33 C62.42,14.68 62.89,15.02 63.39,15.32 C63.88,15.63 64.39,15.92 64.91,16.18 C65.43,16.44 65.96,16.68 66.5,16.9 C67.04,17.12 67.59,17.31 68.15,17.48 C69.27,17.82 70.41,18.08 71.56,18.24 C72.14,18.33 72.72,18.39 73.3,18.43 C73.88,18.47 74.47,18.49 75.03,18.46 L75.07,18.46 C75.63,18.49 76.23,18.46 76.8,18.43 C77.38,18.39 77.96,18.33 78.54,18.25 C79.7,18.08 80.84,17.83 81.95,17.49 C82.51,17.31 83.06,17.12 83.6,16.91 C84.14,16.69 84.67,16.45 85.19,16.19 C85.71,15.92 86.22,15.64 86.71,15.32 C87.21,15.02 87.68,14.68 88.15,14.33 L88.83,13.78 L89.48,13.2 C89.7,13.01 89.9,12.79 90.1,12.59 C90.31,12.38 90.51,12.17 90.7,11.95 L91.27,11.28 L91.8,10.58 C92.14,10.11 92.46,9.61 92.76,9.11 C93.05,8.6 93.35,8.09 93.59,7.56 C93.86,7.04 94.08,6.49 94.3,5.94 C94.54,5.4 94.69,4.83 94.89,4.27 C95.06,3.71 95.21,3.14 95.37,2.57 C95.24,3.14 95.12,3.73 94.98,4.3 C94.8,4.87 94.67,5.45 94.46,6 C94.26,6.56 94.06,7.12 93.81,7.66 C93.59,8.21 93.3,8.74 93.03,9.26 C91.87,11.35 90.32,13.22 88.45,14.72 C87.98,15.09 87.5,15.45 86.99,15.77 C86.49,16.1 85.97,16.39 85.44,16.67 C84.91,16.95 84.36,17.2 83.81,17.43 C83.26,17.66 82.69,17.86 82.12,18.04 C80.98,18.4 79.81,18.67 78.62,18.85 C78.03,18.94 77.43,19.01 76.84,19.05 C76.24,19.09 75.65,19.12 75.03,19.09 L75.07,19.09 C74.45,19.11 73.86,19.09 73.26,19.05 C72.66,19.01 72.07,18.94 71.48,18.85 C70.3,18.67 69.13,18.4 67.98,18.04 C67.41,17.86 66.85,17.65 66.29,17.43 C65.74,17.2 65.19,16.95 64.66,16.67 C64.13,16.39 63.6,16.11 63.11,15.77 C62.6,15.45 62.13,15.08 61.65,14.72 C59.78,13.22 58.22,11.35 57.07,9.26 C56.8,8.73 56.51,8.21 56.29,7.66 C56.04,7.12 55.84,6.56 55.64,6 C55.42,5.45 55.29,4.86 55.12,4.3 C54.97,3.73 54.86,3.15 54.73,2.57 L54.74,2.55 Z" id="Path" fill="#BFBFBF" opacity="0.3" style="mix-blend-mode: multiply;"></path>
            <path d="M91.51,1 C91.51,1 91.4,1.72 91.01,2.94 C90.61,4.15 89.95,5.87 88.74,7.71 C87.54,9.54 85.78,11.53 83.37,12.93 C82.17,13.63 80.84,14.19 79.43,14.56 C78.02,14.94 76.55,15.13 75.07,15.18 C73.58,15.13 72.11,14.94 70.7,14.56 C69.29,14.18 67.96,13.62 66.76,12.93 C64.34,11.53 62.59,9.54 61.39,7.71 C60.18,5.86 59.52,4.14 59.12,2.93 C58.73,1.72 58.62,0.99 58.62,0.99 C58.62,0.99 58.78,1.7 59.23,2.89 C59.68,4.08 60.44,5.73 61.67,7.51 C62.29,8.39 63.03,9.3 63.93,10.16 C64.82,11.01 65.87,11.79 67.02,12.47 C68.18,13.14 69.47,13.66 70.84,14.01 C72.21,14.36 73.63,14.54 75.05,14.57 C76.48,14.54 77.91,14.36 79.27,14.01 C80.63,13.66 81.93,13.13 83.09,12.47 C84.25,11.8 85.3,11.02 86.19,10.16 C87.08,9.3 87.83,8.4 88.45,7.51 C89.68,5.73 90.45,4.07 90.89,2.89 C91.34,1.7 91.51,0.99 91.51,0.99 L91.51,1 Z" id="Path" fill="#BFBFBF" opacity="0.3" style="mix-blend-mode: multiply;"></path>
            <path d="M75.07,158.76 L75.07,158.76 C74.81,158.76 49.08,158.59 26.07,152.76 C25.92,152.72 25.82,152.58 25.84,152.43 C25.9,151.94 31.52,102.96 31.52,80.9 C31.52,77.4 31.38,73.15 31.1,68.24 L29.53,73.42 C29.49,73.55 29.36,73.64 29.22,73.63 C8.6,72.28 0.14,60.46 0.06,60.34 C-4.34374758e-15,60.25 -0.01,60.13 0.04,60.03 C0.82,58.49 19.11,22.36 21.61,18.74 C24.15,15.05 25.98,14.45 26.06,14.42 L58.58,1.03 C58.68,0.99 58.8,1 58.88,1.07 C58.93,1.11 64.54,5.34 75.1,4.97 C75.57,4.98 76.01,4.99 76.44,4.99 C86.13,4.99 91.19,1.11 91.23,1.07 C91.32,1 91.43,0.99 91.53,1.03 L124.09,14.43 C124.14,14.44 125.97,15.05 128.51,18.74 C131.01,22.36 149.3,58.49 150.08,60.03 C150.13,60.13 150.12,60.25 150.06,60.34 C149.98,60.46 141.52,72.28 120.9,73.64 C120.77,73.65 120.63,73.56 120.59,73.43 L119.02,68.25 C118.74,73.16 118.6,77.41 118.6,80.91 C118.6,102.97 124.23,151.94 124.28,152.44 C124.3,152.59 124.2,152.73 124.05,152.77 C101.04,158.6 75.31,158.77 75.05,158.77 L75.07,158.76 Z M26.47,152.23 C49.31,157.97 74.74,158.15 75.07,158.15 C75.4,158.15 100.82,157.98 123.67,152.23 C123.22,148.3 118.01,102.15 118.01,80.9 C118.01,76.99 118.19,72.15 118.53,66.51 C118.53,66.36 118.65,66.24 118.8,66.22 C118.95,66.21 119.08,66.3 119.13,66.44 L121.12,73.02 C140.02,71.69 148.45,61.48 149.47,60.14 C148.08,57.4 130.42,22.55 128.03,19.09 C125.63,15.61 123.92,15.01 123.9,15.01 L91.48,1.66 C90.53,2.35 85.07,5.92 75.11,5.57 C74.67,5.59 74.22,5.59 73.79,5.59 C64.65,5.59 59.58,2.3 58.66,1.65 L26.26,14.99 C26.26,14.99 24.51,15.6 22.11,19.08 C19.72,22.54 2.05,57.39 0.66,60.13 C1.69,61.47 10.11,71.68 29.01,73.01 L31.01,66.43 C31.05,66.29 31.19,66.2 31.34,66.21 C31.49,66.23 31.6,66.35 31.61,66.5 C31.96,72.15 32.13,76.99 32.13,80.89 C32.13,102.14 26.92,148.29 26.47,152.22 L26.47,152.23 Z" id="Shape" fill="#A2A2A2"></path>
        </g>
    </g>
</svg>